<svg width="78" height="24" viewBox="0 0 78 24" fill="none" xmlns="http://www.w3.org/2000/svg">
    <path d="M71.9715 13.9433C68.6465 13.9433 65.9431 11.2634 65.9431 7.96724C65.9431 4.7303 71.483 0.379392 71.7191 0.196423L71.9715 0L72.224 0.196423C72.4601 0.379392 78 4.73299 78 7.96724C78 11.2607 75.2965 13.9433 71.9715 13.9433ZM71.9743 1.03055C70.9021 1.91042 66.7574 5.47563 66.7574 7.96724C66.7574 10.8167 69.0971 13.1361 71.9715 13.1361C74.846 13.1361 77.1857 10.8167 77.1857 7.96724C77.1857 5.72318 73.6381 2.3786 71.9743 1.03055Z" fill="#FDFDFD"/>
    <path d="M62.211 23.4416L55.2896 6.76721C55.2271 6.61652 55.0779 6.51697 54.9123 6.51697C54.7467 6.51697 54.5974 6.61652 54.535 6.76721L47.676 23.4416C47.5919 23.6488 47.6923 23.8829 47.8986 23.969C48.1076 24.0524 48.3437 23.9556 48.4306 23.7484L53.8157 10.658L59.1873 23.7484C59.2524 23.9044 59.4044 23.9986 59.5646 23.9986C59.6161 23.9986 59.6677 23.9879 59.7166 23.969C59.9256 23.8856 60.026 23.6488 59.9391 23.4416L54.2527 9.58709L54.9123 7.98342L61.4537 23.7457C61.5189 23.9018 61.6709 23.9959 61.831 23.9959C61.8826 23.9959 61.9341 23.9852 61.9857 23.9663C62.1974 23.8829 62.2979 23.6488 62.211 23.4416Z" fill="#FDFDFD"/>
    <path d="M22.4441 6.76721C22.3817 6.61652 22.2324 6.51697 22.0668 6.51697C21.9013 6.51697 21.752 6.61652 21.6895 6.76721L14.7844 23.4416C14.7003 23.6488 14.798 23.8829 15.007 23.969C15.216 24.0551 15.4521 23.9556 15.539 23.7484L20.9648 10.6472L26.3445 23.7484C26.4097 23.9044 26.5617 23.9986 26.7218 23.9986C26.7734 23.9986 26.825 23.9879 26.8738 23.969C27.0828 23.8856 27.1832 23.6488 27.0964 23.4416L21.4073 9.57902L22.0695 7.98072L28.6028 23.7457C28.668 23.9018 28.82 23.9959 28.9801 23.9959C29.0317 23.9959 29.0832 23.9852 29.1348 23.9663C29.3438 23.8802 29.4415 23.6461 29.3574 23.439L22.4441 6.76721Z" fill="#FDFDFD"/>
    <path d="M42.3479 14.6079C43.6453 13.8868 44.5248 12.5145 44.5248 10.9378C44.5248 8.61838 42.6221 6.73218 40.2823 6.73218H33.1139C32.8886 6.73218 32.7068 6.91246 32.7068 7.13579V23.5869C32.7068 23.8102 32.8886 23.9905 33.1139 23.9905C33.3392 23.9905 33.5211 23.8102 33.5211 23.5869V7.5394H34.9922V23.5923C34.9922 23.8156 35.1741 23.9959 35.3994 23.9959H40.7492C43.4363 23.9959 45.6213 21.8298 45.6213 19.166C45.6213 17.0565 44.2506 15.2645 42.3479 14.6079ZM43.7105 10.9378C43.7105 12.8105 42.1715 14.3362 40.2823 14.3362H35.8065V7.5394H40.2823C42.1742 7.5394 43.7105 9.06235 43.7105 10.9378ZM40.7492 23.186H35.8065V15.1407H40.7492C42.9858 15.1407 44.8071 16.9462 44.8071 19.1633C44.8071 21.3805 42.9858 23.186 40.7492 23.186Z" fill="#FDFDFD"/>
    <path d="M6.98622 14.7264C4.61937 14.2071 2.37194 13.7066 1.75037 12.0491C2.55923 9.71624 5.96566 9.59784 6.64423 9.59784C8.91337 9.59784 10.8649 10.2436 12.0022 11.371C12.1624 11.5298 12.4202 11.5298 12.5776 11.371C12.7351 11.2123 12.7378 10.9567 12.5776 10.8006C10.8134 9.05163 8.1018 8.79063 6.64423 8.79063C4.82294 8.79063 2.73023 9.31263 1.59566 10.6903C1.89966 7.67666 5.82994 7.51791 6.64423 7.51791C8.91337 7.51791 10.8649 8.16369 12.0022 9.2911C12.1624 9.44985 12.4202 9.44985 12.5776 9.2911C12.7351 9.13235 12.7378 8.87673 12.5776 8.72067C10.8134 6.97169 8.1018 6.71069 6.64423 6.71069C3.92994 6.71069 0.762375 7.85156 0.762375 11.067C0.762375 14.1855 3.83766 14.8609 6.81251 15.5148C9.24722 16.0502 11.5625 16.5614 12.1705 18.3212C11.4784 20.6998 9.48879 21.1572 6.72023 21.0846C4.27466 21.0227 2.24709 20.2128 0.694518 18.6737C0.534375 18.5149 0.27652 18.5149 0.119091 18.6737C-0.0383371 18.8324 -0.0410513 19.088 0.119091 19.2441C1.82366 20.9339 4.03852 21.8245 6.70123 21.8918C6.87223 21.8972 7.04594 21.8972 7.21694 21.8972C9.16308 21.8972 11.1228 21.5797 12.2601 20.0083C11.7226 22.8739 7.93351 23.1134 6.70937 23.1134C4.53251 23.1134 2.17109 22.1662 0.694518 20.7025C0.534375 20.5437 0.27652 20.5437 0.119091 20.7025C-0.0383371 20.8612 -0.0410513 21.1168 0.119091 21.2729C1.74223 22.882 4.32894 23.9206 6.70937 23.9206C9.81722 23.9206 13.1395 22.7044 13.1395 19.2952C13.1368 16.0771 9.86879 15.3587 6.98622 14.7264Z" fill="#FDFDFD"/>
</svg>
